# xmcd
#
# Track frame offsets:
# 150
# 14223
# 27921
# 42744
# 59142
# 74865
# 93138
# 106236
# 123384
# 138357
#
# Disc length: 2146 seconds
#
# Revision: 1
# Processed by: cddbd v1.5.2PL0 Copyright (c) Steve Scherf et al.
# Submitted via: CedeCatalogueitor 2.6.0.6 http://personales.ya.com/cdcatalogueitor
#
DISCID=9a08600a
DTITLE=Francisco - Bravo
DYEAR=1900
DGENRE=
TTITLE0=America,america
TTITLE1=Un Beso Y Una Flor
TTITLE2=Te Quiero, Te Quiero
TTITLE3=Libre
TTITLE4=Noelia
TTITLE5=Cartas Amarillas
TTITLE6=La Puerta Del Amor
TTITLE7=Laura
TTITLE8=Mi Tierra
TTITLE9=Mi Gran Amor
EXTD=
EXTT0=
EXTT1=
EXTT2=
EXTT3=
EXTT4=
EXTT5=
EXTT6=
EXTT7=
EXTT8=
EXTT9=
PLAYORDER=
